<svg xmlns="http://www.w3.org/2000/svg" width="600" height="400"><circle cx="260" cy="168" r="0.7" fill="white" opacity="0.4"/><circle cx="119" cy="151" r="1.0" fill="white" opacity="0.6"/><circle cx="245" cy="76" r="1.1" fill="white" opacity="0.7"/><circle cx="4" cy="145" r="0.5" fill="white" opacity="0.9"/><circle cx="178" cy="99" r="1.0" fill="white" opacity="0.8"/><circle cx="189" cy="171" r="0.8" fill="white" opacity="0.4"/><circle cx="268" cy="275" r="1.0" fill="white" opacity="0.4"/><circle cx="75" cy="43" r="1.3" fill="white" opacity="0.7"/><circle cx="450" cy="306" r="1.2" fill="white" opacity="0.3"/><circle cx="219" cy="382" r="0.8" fill="white" opacity="0.4"/><circle cx="592" cy="238" r="1.3" fill="white" opacity="0.9"/><circle cx="552" cy="56" r="0.8" fill="white" opacity="0.7"/><circle cx="567" cy="64" r="0.9" fill="white" opacity="0.6"/><circle cx="415" cy="386" r="1.1" fill="white" opacity="0.7"/><circle cx="255" cy="114" r="1.1" fill="white" opacity="0.5"/><circle cx="143" cy="395" r="1.3" fill="white" opacity="0.3"/><circle cx="37" cy="28" r="1.0" fill="white" opacity="0.3"/><circle cx="368" cy="391" r="1.5" fill="white" opacity="0.4"/><circle cx="518" cy="290" r="1.2" fill="white" opacity="0.3"/><circle cx="484" cy="356" r="1.2" fill="white" opacity="0.4"/><circle cx="545" cy="49" r="0.5" fill="white" opacity="0.6"/><circle cx="363" cy="386" r="0.9" fill="white" opacity="0.3"/><circle cx="494" cy="76" r="1.3" fill="white" opacity="0.8"/><circle cx="29" cy="360" r="0.5" fill="white" opacity="0.4"/><circle cx="479" cy="60" r="1.4" fill="white" opacity="0.9"/><circle cx="107" cy="71" r="0.7" fill="white" opacity="0.4"/><circle cx="90" cy="84" r="0.7" fill="white" opacity="0.3"/><circle cx="240" cy="345" r="1.0" fill="white" opacity="0.5"/><circle cx="592" cy="366" r="1.2" fill="white" opacity="0.6"/><circle cx="520" cy="139" r="1.1" fill="white" opacity="0.8"/><circle cx="484" cy="320" r="0.9" fill="white" opacity="0.6"/><circle cx="296" cy="234" r="1.4" fill="white" opacity="0.3"/><circle cx="500" cy="38" r="0.5" fill="white" opacity="0.7"/><circle cx="11" cy="48" r="1.2" fill="white" opacity="0.4"/><circle cx="210" cy="349" r="0.6" fill="white" opacity="0.6"/><circle cx="113" cy="342" r="0.9" fill="white" opacity="0.6"/><circle cx="502" cy="274" r="1.2" fill="white" opacity="0.8"/><circle cx="200" cy="334" r="0.9" fill="white" opacity="0.5"/><circle cx="90" cy="270" r="0.8" fill="white" opacity="0.8"/><circle cx="289" cy="190" r="1.3" fill="white" opacity="0.9"/><circle cx="491" cy="385" r="1.3" fill="white" opacity="0.7"/><circle cx="405" cy="260" r="1.0" fill="white" opacity="0.9"/><circle cx="263" cy="195" r="1.5" fill="white" opacity="0.8"/><circle cx="318" cy="42" r="0.8" fill="white" opacity="0.4"/><circle cx="142" cy="186" r="1.4" fill="white" opacity="0.7"/><circle cx="219" cy="303" r="1.1" fill="white" opacity="0.7"/><circle cx="595" cy="31" r="1.0" fill="white" opacity="0.8"/><circle cx="124" cy="329" r="1.2" fill="white" opacity="0.4"/><circle cx="166" cy="336" r="1.5" fill="white" opacity="0.3"/><circle cx="530" cy="376" r="1.1" fill="white" opacity="0.9"/><circle cx="90" cy="361" r="0.8" fill="white" opacity="0.5"/><circle cx="7" cy="26" r="0.9" fill="white" opacity="0.8"/><circle cx="509" cy="209" r="1.3" fill="white" opacity="0.6"/><circle cx="80" cy="222" r="0.5" fill="white" opacity="0.3"/><circle cx="131" cy="21" r="1.4" fill="white" opacity="0.7"/><circle cx="269" cy="308" r="1.4" fill="white" opacity="0.7"/><circle cx="180" cy="279" r="1.4" fill="white" opacity="0.4"/><circle cx="48" cy="283" r="1.5" fill="white" opacity="0.7"/><circle cx="525" cy="367" r="0.6" fill="white" opacity="0.7"/><circle cx="210" cy="279" r="1.1" fill="white" opacity="0.7"/></svg>