<svg xmlns="http://www.w3.org/2000/svg" width="600" height="700"><circle cx="116" cy="27" r="1.2" fill="white" opacity="0.4"/><circle cx="144" cy="106" r="1.2" fill="white" opacity="0.8"/><circle cx="91" cy="606" r="0.9" fill="white" opacity="0.3"/><circle cx="225" cy="240" r="1.0" fill="white" opacity="0.3"/><circle cx="205" cy="667" r="1.2" fill="white" opacity="0.6"/><circle cx="461" cy="605" r="0.8" fill="white" opacity="0.8"/><circle cx="165" cy="434" r="0.8" fill="white" opacity="0.4"/><circle cx="346" cy="106" r="0.6" fill="white" opacity="0.4"/><circle cx="354" cy="620" r="0.8" fill="white" opacity="0.3"/><circle cx="472" cy="551" r="0.6" fill="white" opacity="0.9"/><circle cx="82" cy="567" r="0.8" fill="white" opacity="0.7"/><circle cx="372" cy="593" r="0.7" fill="white" opacity="0.3"/><circle cx="235" cy="298" r="1.5" fill="white" opacity="0.8"/><circle cx="105" cy="391" r="0.8" fill="white" opacity="0.7"/><circle cx="375" cy="168" r="0.9" fill="white" opacity="0.4"/><circle cx="275" cy="665" r="0.6" fill="white" opacity="0.7"/><circle cx="548" cy="252" r="0.7" fill="white" opacity="0.5"/><circle cx="572" cy="226" r="1.2" fill="white" opacity="0.8"/><circle cx="59" cy="236" r="1.3" fill="white" opacity="0.8"/><circle cx="412" cy="276" r="0.6" fill="white" opacity="0.8"/><circle cx="582" cy="324" r="0.7" fill="white" opacity="0.6"/><circle cx="471" cy="148" r="0.8" fill="white" opacity="0.4"/><circle cx="576" cy="553" r="0.8" fill="white" opacity="0.7"/><circle cx="410" cy="372" r="0.7" fill="white" opacity="0.9"/><circle cx="523" cy="507" r="0.6" fill="white" opacity="0.3"/><circle cx="114" cy="158" r="1.1" fill="white" opacity="0.8"/><circle cx="434" cy="612" r="0.6" fill="white" opacity="0.5"/><circle cx="481" cy="543" r="0.8" fill="white" opacity="0.6"/><circle cx="13" cy="698" r="1.2" fill="white" opacity="0.7"/><circle cx="551" cy="275" r="1.3" fill="white" opacity="0.5"/><circle cx="302" cy="447" r="0.7" fill="white" opacity="0.3"/><circle cx="271" cy="514" r="1.3" fill="white" opacity="0.6"/><circle cx="110" cy="642" r="0.8" fill="white" opacity="0.7"/><circle cx="205" cy="158" r="0.9" fill="white" opacity="0.4"/><circle cx="545" cy="2" r="1.1" fill="white" opacity="0.6"/><circle cx="116" cy="373" r="1.4" fill="white" opacity="0.8"/><circle cx="316" cy="247" r="0.6" fill="white" opacity="0.8"/><circle cx="82" cy="89" r="1.2" fill="white" opacity="0.8"/><circle cx="547" cy="130" r="0.6" fill="white" opacity="0.6"/><circle cx="564" cy="171" r="0.8" fill="white" opacity="0.8"/><circle cx="435" cy="218" r="1.4" fill="white" opacity="0.8"/><circle cx="207" cy="321" r="0.9" fill="white" opacity="0.7"/><circle cx="384" cy="450" r="1.4" fill="white" opacity="0.6"/><circle cx="255" cy="232" r="0.6" fill="white" opacity="0.3"/><circle cx="569" cy="237" r="1.1" fill="white" opacity="0.3"/><circle cx="62" cy="236" r="0.6" fill="white" opacity="0.3"/><circle cx="340" cy="74" r="1.0" fill="white" opacity="0.5"/><circle cx="499" cy="221" r="1.0" fill="white" opacity="0.7"/><circle cx="586" cy="592" r="1.0" fill="white" opacity="0.8"/><circle cx="418" cy="196" r="0.6" fill="white" opacity="0.7"/><circle cx="364" cy="435" r="0.9" fill="white" opacity="0.8"/><circle cx="57" cy="691" r="1.2" fill="white" opacity="0.7"/><circle cx="64" cy="414" r="1.2" fill="white" opacity="0.8"/><circle cx="113" cy="256" r="0.7" fill="white" opacity="0.6"/><circle cx="145" cy="434" r="0.7" fill="white" opacity="0.6"/><circle cx="79" cy="455" r="1.3" fill="white" opacity="0.8"/><circle cx="102" cy="53" r="1.2" fill="white" opacity="0.6"/><circle cx="17" cy="97" r="1.4" fill="white" opacity="0.8"/><circle cx="172" cy="418" r="1.0" fill="white" opacity="0.4"/><circle cx="412" cy="62" r="0.7" fill="white" opacity="0.3"/><circle cx="401" cy="273" r="1.4" fill="white" opacity="0.8"/><circle cx="294" cy="435" r="1.2" fill="white" opacity="0.7"/><circle cx="571" cy="679" r="1.2" fill="white" opacity="0.4"/><circle cx="305" cy="224" r="1.5" fill="white" opacity="0.6"/><circle cx="557" cy="64" r="1.2" fill="white" opacity="0.3"/><circle cx="490" cy="516" r="1.4" fill="white" opacity="0.6"/><circle cx="60" cy="522" r="0.6" fill="white" opacity="0.4"/><circle cx="71" cy="693" r="1.4" fill="white" opacity="0.5"/><circle cx="585" cy="254" r="1.1" fill="white" opacity="0.3"/><circle cx="85" cy="431" r="1.2" fill="white" opacity="0.6"/><circle cx="325" cy="269" r="0.7" fill="white" opacity="0.7"/><circle cx="246" cy="273" r="0.9" fill="white" opacity="0.7"/><circle cx="309" cy="470" r="0.8" fill="white" opacity="0.8"/><circle cx="76" cy="11" r="1.0" fill="white" opacity="0.9"/><circle cx="104" cy="77" r="1.0" fill="white" opacity="0.6"/><circle cx="137" cy="359" r="1.4" fill="white" opacity="0.8"/><circle cx="380" cy="293" r="0.7" fill="white" opacity="0.8"/><circle cx="311" cy="628" r="1.5" fill="white" opacity="0.8"/><circle cx="543" cy="10" r="1.2" fill="white" opacity="0.6"/><circle cx="108" cy="139" r="0.8" fill="white" opacity="0.8"/></svg>